<mxfile host="app.diagrams.net" modified="2023-03-19T16:32:25.079Z" agent="5.0 (Macintosh; Intel Mac OS X 10_15_7) AppleWebKit/537.36 (KHTML, like Gecko) Chrome/110.0.0.0 Safari/537.36" etag="U21A6iZwBAd6u7RT8rab" version="20.8.23" type="github">
  <diagram name="第 1 页" id="CieI4Ka8IBiyrda5oBCA">
    <mxGraphModel dx="1194" dy="615" grid="0" gridSize="10" guides="1" tooltips="1" connect="1" arrows="1" fold="1" page="0" pageScale="1" pageWidth="827" pageHeight="1169" math="0" shadow="0">
      <root>
        <mxCell id="0" />
        <mxCell id="1" parent="0" />
        <mxCell id="-OxEj-Mk2Tuy_CTHqCRG-173" style="edgeStyle=none;rounded=0;orthogonalLoop=1;jettySize=auto;html=1;entryX=1;entryY=0.5;entryDx=0;entryDy=0;strokeColor=#f61c04;strokeWidth=1;" edge="1" parent="1">
          <mxGeometry relative="1" as="geometry">
            <mxPoint x="848.5" y="429.7421052631578" as="sourcePoint" />
            <mxPoint x="814" y="429.5" as="targetPoint" />
          </mxGeometry>
        </mxCell>
        <mxCell id="-OxEj-Mk2Tuy_CTHqCRG-164" value="" style="rounded=0;whiteSpace=wrap;html=1;fillColor=#f5f5f5;fontColor=#333333;strokeColor=#666666;" vertex="1" parent="1">
          <mxGeometry x="848.5" y="374" width="216" height="103" as="geometry" />
        </mxCell>
        <mxCell id="-OxEj-Mk2Tuy_CTHqCRG-171" style="edgeStyle=none;rounded=0;orthogonalLoop=1;jettySize=auto;html=1;strokeColor=#f61c04;strokeWidth=1;" edge="1" parent="1">
          <mxGeometry relative="1" as="geometry">
            <mxPoint x="814" y="414.93113772455104" as="sourcePoint" />
            <mxPoint x="848.5" y="415.0688622754492" as="targetPoint" />
          </mxGeometry>
        </mxCell>
        <mxCell id="-OxEj-Mk2Tuy_CTHqCRG-163" value="" style="rounded=0;whiteSpace=wrap;html=1;fillColor=#f5f5f5;fontColor=#333333;strokeColor=#666666;" vertex="1" parent="1">
          <mxGeometry x="598" y="373" width="216" height="103" as="geometry" />
        </mxCell>
        <mxCell id="-OxEj-Mk2Tuy_CTHqCRG-166" style="edgeStyle=none;rounded=0;orthogonalLoop=1;jettySize=auto;html=1;exitX=0;exitY=0.5;exitDx=0;exitDy=0;entryX=1;entryY=0.5;entryDx=0;entryDy=0;strokeColor=#f61c04;strokeWidth=1;" edge="1" parent="1">
          <mxGeometry relative="1" as="geometry">
            <mxPoint x="349" y="430" as="sourcePoint" />
            <mxPoint x="323" y="430" as="targetPoint" />
          </mxGeometry>
        </mxCell>
        <mxCell id="-OxEj-Mk2Tuy_CTHqCRG-162" value="" style="rounded=0;whiteSpace=wrap;html=1;fillColor=#f5f5f5;fontColor=#333333;strokeColor=#666666;" vertex="1" parent="1">
          <mxGeometry x="349" y="373.5" width="216" height="103" as="geometry" />
        </mxCell>
        <mxCell id="-OxEj-Mk2Tuy_CTHqCRG-165" style="edgeStyle=none;rounded=0;orthogonalLoop=1;jettySize=auto;html=1;exitX=1;exitY=0.25;exitDx=0;exitDy=0;entryX=0;entryY=0.25;entryDx=0;entryDy=0;strokeColor=#f61c04;strokeWidth=1;" edge="1" parent="1">
          <mxGeometry relative="1" as="geometry">
            <mxPoint x="323" y="417.25" as="sourcePoint" />
            <mxPoint x="349" y="417.25" as="targetPoint" />
          </mxGeometry>
        </mxCell>
        <mxCell id="-OxEj-Mk2Tuy_CTHqCRG-161" value="" style="rounded=0;whiteSpace=wrap;html=1;fillColor=#f5f5f5;fontColor=#333333;strokeColor=#666666;" vertex="1" parent="1">
          <mxGeometry x="107" y="373.5" width="216" height="103" as="geometry" />
        </mxCell>
        <mxCell id="-OxEj-Mk2Tuy_CTHqCRG-2" value="1" style="rounded=0;whiteSpace=wrap;html=1;fillColor=#fff2cc;strokeColor=#d6b656;" vertex="1" parent="1">
          <mxGeometry x="317" y="100" width="50" height="30" as="geometry" />
        </mxCell>
        <mxCell id="-OxEj-Mk2Tuy_CTHqCRG-19" style="rounded=0;orthogonalLoop=1;jettySize=auto;html=1;exitX=0.5;exitY=1;exitDx=0;exitDy=0;entryX=0.5;entryY=0;entryDx=0;entryDy=0;strokeWidth=1;" edge="1" parent="1" source="-OxEj-Mk2Tuy_CTHqCRG-3" target="-OxEj-Mk2Tuy_CTHqCRG-14">
          <mxGeometry relative="1" as="geometry" />
        </mxCell>
        <mxCell id="-OxEj-Mk2Tuy_CTHqCRG-3" value="" style="rounded=0;whiteSpace=wrap;html=1;" vertex="1" parent="1">
          <mxGeometry x="367" y="100" width="50" height="30" as="geometry" />
        </mxCell>
        <mxCell id="-OxEj-Mk2Tuy_CTHqCRG-38" style="edgeStyle=none;rounded=0;orthogonalLoop=1;jettySize=auto;html=1;strokeWidth=1;" edge="1" parent="1" source="-OxEj-Mk2Tuy_CTHqCRG-4" target="-OxEj-Mk2Tuy_CTHqCRG-37">
          <mxGeometry relative="1" as="geometry" />
        </mxCell>
        <mxCell id="-OxEj-Mk2Tuy_CTHqCRG-4" value="" style="rounded=0;whiteSpace=wrap;html=1;" vertex="1" parent="1">
          <mxGeometry x="467" y="100" width="50" height="30" as="geometry" />
        </mxCell>
        <mxCell id="-OxEj-Mk2Tuy_CTHqCRG-5" value="10" style="rounded=0;whiteSpace=wrap;html=1;fillColor=#fff2cc;strokeColor=#d6b656;" vertex="1" parent="1">
          <mxGeometry x="417" y="100" width="50" height="30" as="geometry" />
        </mxCell>
        <mxCell id="-OxEj-Mk2Tuy_CTHqCRG-6" value="20" style="rounded=0;whiteSpace=wrap;html=1;fillColor=#fff2cc;strokeColor=#d6b656;" vertex="1" parent="1">
          <mxGeometry x="517" y="100" width="50" height="30" as="geometry" />
        </mxCell>
        <mxCell id="-OxEj-Mk2Tuy_CTHqCRG-43" style="edgeStyle=none;rounded=0;orthogonalLoop=1;jettySize=auto;html=1;entryX=0.75;entryY=0;entryDx=0;entryDy=0;strokeWidth=1;" edge="1" parent="1" source="-OxEj-Mk2Tuy_CTHqCRG-7" target="-OxEj-Mk2Tuy_CTHqCRG-41">
          <mxGeometry relative="1" as="geometry" />
        </mxCell>
        <mxCell id="-OxEj-Mk2Tuy_CTHqCRG-7" value="" style="rounded=0;whiteSpace=wrap;html=1;" vertex="1" parent="1">
          <mxGeometry x="567" y="100" width="50" height="30" as="geometry" />
        </mxCell>
        <mxCell id="-OxEj-Mk2Tuy_CTHqCRG-10" value="根结点" style="rounded=1;whiteSpace=wrap;html=1;fillColor=#d5e8d4;strokeColor=#82b366;" vertex="1" parent="1">
          <mxGeometry x="246" y="105" width="52" height="20" as="geometry" />
        </mxCell>
        <mxCell id="-OxEj-Mk2Tuy_CTHqCRG-11" value="1" style="rounded=0;whiteSpace=wrap;html=1;fillColor=#fff2cc;strokeColor=#d6b656;" vertex="1" parent="1">
          <mxGeometry x="178" y="240" width="50" height="30" as="geometry" />
        </mxCell>
        <mxCell id="-OxEj-Mk2Tuy_CTHqCRG-36" style="edgeStyle=none;rounded=0;orthogonalLoop=1;jettySize=auto;html=1;exitX=0.5;exitY=1;exitDx=0;exitDy=0;entryX=0.5;entryY=0;entryDx=0;entryDy=0;strokeWidth=1;" edge="1" parent="1" source="-OxEj-Mk2Tuy_CTHqCRG-12" target="-OxEj-Mk2Tuy_CTHqCRG-161">
          <mxGeometry relative="1" as="geometry" />
        </mxCell>
        <mxCell id="-OxEj-Mk2Tuy_CTHqCRG-12" value="" style="rounded=0;whiteSpace=wrap;html=1;" vertex="1" parent="1">
          <mxGeometry x="228" y="240" width="50" height="30" as="geometry" />
        </mxCell>
        <mxCell id="-OxEj-Mk2Tuy_CTHqCRG-128" style="edgeStyle=none;rounded=0;orthogonalLoop=1;jettySize=auto;html=1;entryX=0.5;entryY=0;entryDx=0;entryDy=0;strokeWidth=1;" edge="1" parent="1" source="-OxEj-Mk2Tuy_CTHqCRG-13" target="-OxEj-Mk2Tuy_CTHqCRG-162">
          <mxGeometry relative="1" as="geometry" />
        </mxCell>
        <mxCell id="-OxEj-Mk2Tuy_CTHqCRG-13" value="" style="rounded=0;whiteSpace=wrap;html=1;" vertex="1" parent="1">
          <mxGeometry x="328" y="240" width="50" height="30" as="geometry" />
        </mxCell>
        <mxCell id="-OxEj-Mk2Tuy_CTHqCRG-14" value="4" style="rounded=0;whiteSpace=wrap;html=1;fillColor=#fff2cc;strokeColor=#d6b656;" vertex="1" parent="1">
          <mxGeometry x="278" y="240" width="50" height="30" as="geometry" />
        </mxCell>
        <mxCell id="-OxEj-Mk2Tuy_CTHqCRG-15" value="7" style="rounded=0;whiteSpace=wrap;html=1;fillColor=#fff2cc;strokeColor=#d6b656;" vertex="1" parent="1">
          <mxGeometry x="378" y="240" width="50" height="30" as="geometry" />
        </mxCell>
        <mxCell id="-OxEj-Mk2Tuy_CTHqCRG-129" style="edgeStyle=none;rounded=0;orthogonalLoop=1;jettySize=auto;html=1;entryX=0.5;entryY=0;entryDx=0;entryDy=0;strokeWidth=1;exitX=0.5;exitY=1;exitDx=0;exitDy=0;" edge="1" parent="1" source="-OxEj-Mk2Tuy_CTHqCRG-16" target="-OxEj-Mk2Tuy_CTHqCRG-163">
          <mxGeometry relative="1" as="geometry" />
        </mxCell>
        <mxCell id="-OxEj-Mk2Tuy_CTHqCRG-153" style="edgeStyle=none;rounded=0;orthogonalLoop=1;jettySize=auto;html=1;exitX=1;exitY=0.25;exitDx=0;exitDy=0;entryX=0;entryY=0.25;entryDx=0;entryDy=0;strokeColor=#f10404;strokeWidth=1;" edge="1" parent="1" source="-OxEj-Mk2Tuy_CTHqCRG-16" target="-OxEj-Mk2Tuy_CTHqCRG-37">
          <mxGeometry relative="1" as="geometry" />
        </mxCell>
        <mxCell id="-OxEj-Mk2Tuy_CTHqCRG-16" value="" style="rounded=0;whiteSpace=wrap;html=1;" vertex="1" parent="1">
          <mxGeometry x="428" y="240" width="50" height="30" as="geometry" />
        </mxCell>
        <mxCell id="-OxEj-Mk2Tuy_CTHqCRG-20" value="1" style="rounded=0;whiteSpace=wrap;html=1;fillColor=#fff2cc;strokeColor=#d6b656;" vertex="1" parent="1">
          <mxGeometry x="114.5" y="380" width="50" height="30" as="geometry" />
        </mxCell>
        <mxCell id="-OxEj-Mk2Tuy_CTHqCRG-21" value="0001" style="rounded=0;whiteSpace=wrap;html=1;fillColor=#dae8fc;strokeColor=#6c8ebf;" vertex="1" parent="1">
          <mxGeometry x="164.5" y="380" width="50" height="30" as="geometry" />
        </mxCell>
        <mxCell id="-OxEj-Mk2Tuy_CTHqCRG-22" value="24" style="rounded=0;whiteSpace=wrap;html=1;fillColor=#dae8fc;strokeColor=#6c8ebf;" vertex="1" parent="1">
          <mxGeometry x="264.5" y="380" width="50" height="30" as="geometry" />
        </mxCell>
        <mxCell id="-OxEj-Mk2Tuy_CTHqCRG-23" value="张三" style="rounded=0;whiteSpace=wrap;html=1;fillColor=#dae8fc;strokeColor=#6c8ebf;" vertex="1" parent="1">
          <mxGeometry x="214.5" y="380" width="50" height="30" as="geometry" />
        </mxCell>
        <mxCell id="-OxEj-Mk2Tuy_CTHqCRG-26" value="非叶子结点" style="rounded=1;whiteSpace=wrap;html=1;fillColor=#d5e8d4;strokeColor=#82b366;" vertex="1" parent="1">
          <mxGeometry x="86" y="243" width="71" height="20" as="geometry" />
        </mxCell>
        <mxCell id="-OxEj-Mk2Tuy_CTHqCRG-27" value="2" style="rounded=0;whiteSpace=wrap;html=1;fillColor=#fff2cc;strokeColor=#d6b656;" vertex="1" parent="1">
          <mxGeometry x="114.5" y="410" width="50" height="30" as="geometry" />
        </mxCell>
        <mxCell id="-OxEj-Mk2Tuy_CTHqCRG-28" value="0002" style="rounded=0;whiteSpace=wrap;html=1;fillColor=#dae8fc;strokeColor=#6c8ebf;" vertex="1" parent="1">
          <mxGeometry x="164.5" y="410" width="50" height="30" as="geometry" />
        </mxCell>
        <mxCell id="-OxEj-Mk2Tuy_CTHqCRG-29" value="39" style="rounded=0;whiteSpace=wrap;html=1;fillColor=#dae8fc;strokeColor=#6c8ebf;" vertex="1" parent="1">
          <mxGeometry x="264.5" y="410" width="50" height="30" as="geometry" />
        </mxCell>
        <mxCell id="-OxEj-Mk2Tuy_CTHqCRG-30" value="李四" style="rounded=0;whiteSpace=wrap;html=1;fillColor=#dae8fc;strokeColor=#6c8ebf;" vertex="1" parent="1">
          <mxGeometry x="214.5" y="410" width="50" height="30" as="geometry" />
        </mxCell>
        <mxCell id="-OxEj-Mk2Tuy_CTHqCRG-31" value="3" style="rounded=0;whiteSpace=wrap;html=1;fillColor=#fff2cc;strokeColor=#d6b656;" vertex="1" parent="1">
          <mxGeometry x="114.5" y="440" width="50" height="30" as="geometry" />
        </mxCell>
        <mxCell id="-OxEj-Mk2Tuy_CTHqCRG-32" value="0003" style="rounded=0;whiteSpace=wrap;html=1;fillColor=#dae8fc;strokeColor=#6c8ebf;" vertex="1" parent="1">
          <mxGeometry x="164.5" y="440" width="50" height="30" as="geometry" />
        </mxCell>
        <mxCell id="-OxEj-Mk2Tuy_CTHqCRG-33" value="17" style="rounded=0;whiteSpace=wrap;html=1;fillColor=#dae8fc;strokeColor=#6c8ebf;" vertex="1" parent="1">
          <mxGeometry x="264.5" y="440" width="50" height="30" as="geometry" />
        </mxCell>
        <mxCell id="-OxEj-Mk2Tuy_CTHqCRG-34" value="王五" style="rounded=0;whiteSpace=wrap;html=1;fillColor=#dae8fc;strokeColor=#6c8ebf;" vertex="1" parent="1">
          <mxGeometry x="214.5" y="440" width="50" height="30" as="geometry" />
        </mxCell>
        <mxCell id="-OxEj-Mk2Tuy_CTHqCRG-35" value="叶子结点" style="rounded=1;whiteSpace=wrap;html=1;fillColor=#d5e8d4;strokeColor=#82b366;" vertex="1" parent="1">
          <mxGeometry x="29.5" y="410" width="60" height="20" as="geometry" />
        </mxCell>
        <mxCell id="-OxEj-Mk2Tuy_CTHqCRG-154" style="edgeStyle=none;rounded=0;orthogonalLoop=1;jettySize=auto;html=1;exitX=0;exitY=0.5;exitDx=0;exitDy=0;entryX=1;entryY=0.5;entryDx=0;entryDy=0;strokeColor=#f10404;strokeWidth=1;" edge="1" parent="1">
          <mxGeometry relative="1" as="geometry">
            <mxPoint x="540" y="262" as="sourcePoint" />
            <mxPoint x="478" y="262" as="targetPoint" />
          </mxGeometry>
        </mxCell>
        <mxCell id="-OxEj-Mk2Tuy_CTHqCRG-37" value="10" style="rounded=0;whiteSpace=wrap;html=1;fillColor=#fff2cc;strokeColor=#d6b656;" vertex="1" parent="1">
          <mxGeometry x="540" y="240" width="50" height="30" as="geometry" />
        </mxCell>
        <mxCell id="-OxEj-Mk2Tuy_CTHqCRG-147" style="rounded=0;orthogonalLoop=1;jettySize=auto;html=1;exitX=0.5;exitY=1;exitDx=0;exitDy=0;entryX=0.5;entryY=0;entryDx=0;entryDy=0;strokeColor=#000000;strokeWidth=1;" edge="1" parent="1" source="-OxEj-Mk2Tuy_CTHqCRG-40" target="-OxEj-Mk2Tuy_CTHqCRG-164">
          <mxGeometry relative="1" as="geometry" />
        </mxCell>
        <mxCell id="-OxEj-Mk2Tuy_CTHqCRG-155" style="edgeStyle=none;rounded=0;orthogonalLoop=1;jettySize=auto;html=1;exitX=1;exitY=0.25;exitDx=0;exitDy=0;entryX=0;entryY=0.25;entryDx=0;entryDy=0;strokeColor=#f10404;strokeWidth=1;" edge="1" parent="1" source="-OxEj-Mk2Tuy_CTHqCRG-40" target="-OxEj-Mk2Tuy_CTHqCRG-41">
          <mxGeometry relative="1" as="geometry" />
        </mxCell>
        <mxCell id="-OxEj-Mk2Tuy_CTHqCRG-40" value="......" style="rounded=0;whiteSpace=wrap;html=1;" vertex="1" parent="1">
          <mxGeometry x="590" y="240" width="50" height="30" as="geometry" />
        </mxCell>
        <mxCell id="-OxEj-Mk2Tuy_CTHqCRG-156" style="edgeStyle=none;rounded=0;orthogonalLoop=1;jettySize=auto;html=1;exitX=0;exitY=0.75;exitDx=0;exitDy=0;entryX=1;entryY=0.75;entryDx=0;entryDy=0;strokeColor=#f10404;strokeWidth=1;" edge="1" parent="1" source="-OxEj-Mk2Tuy_CTHqCRG-41" target="-OxEj-Mk2Tuy_CTHqCRG-40">
          <mxGeometry relative="1" as="geometry" />
        </mxCell>
        <mxCell id="-OxEj-Mk2Tuy_CTHqCRG-41" value="20" style="rounded=0;whiteSpace=wrap;html=1;fillColor=#fff2cc;strokeColor=#d6b656;" vertex="1" parent="1">
          <mxGeometry x="710" y="240" width="50" height="30" as="geometry" />
        </mxCell>
        <mxCell id="-OxEj-Mk2Tuy_CTHqCRG-42" value="......" style="rounded=0;whiteSpace=wrap;html=1;" vertex="1" parent="1">
          <mxGeometry x="760" y="240" width="50" height="30" as="geometry" />
        </mxCell>
        <mxCell id="-OxEj-Mk2Tuy_CTHqCRG-56" value="4" style="rounded=0;whiteSpace=wrap;html=1;fillColor=#fff2cc;strokeColor=#d6b656;" vertex="1" parent="1">
          <mxGeometry x="356.5" y="380" width="50" height="30" as="geometry" />
        </mxCell>
        <mxCell id="-OxEj-Mk2Tuy_CTHqCRG-57" value="......" style="rounded=0;whiteSpace=wrap;html=1;fillColor=#dae8fc;strokeColor=#6c8ebf;" vertex="1" parent="1">
          <mxGeometry x="406.5" y="380" width="50" height="30" as="geometry" />
        </mxCell>
        <mxCell id="-OxEj-Mk2Tuy_CTHqCRG-58" value="......" style="rounded=0;whiteSpace=wrap;html=1;fillColor=#dae8fc;strokeColor=#6c8ebf;" vertex="1" parent="1">
          <mxGeometry x="506.5" y="380" width="50" height="30" as="geometry" />
        </mxCell>
        <mxCell id="-OxEj-Mk2Tuy_CTHqCRG-59" value="......" style="rounded=0;whiteSpace=wrap;html=1;fillColor=#dae8fc;strokeColor=#6c8ebf;" vertex="1" parent="1">
          <mxGeometry x="456.5" y="380" width="50" height="30" as="geometry" />
        </mxCell>
        <mxCell id="-OxEj-Mk2Tuy_CTHqCRG-60" value="5" style="rounded=0;whiteSpace=wrap;html=1;fillColor=#fff2cc;strokeColor=#d6b656;" vertex="1" parent="1">
          <mxGeometry x="356.5" y="410" width="50" height="30" as="geometry" />
        </mxCell>
        <mxCell id="-OxEj-Mk2Tuy_CTHqCRG-61" value="......" style="rounded=0;whiteSpace=wrap;html=1;fillColor=#dae8fc;strokeColor=#6c8ebf;" vertex="1" parent="1">
          <mxGeometry x="406.5" y="410" width="50" height="30" as="geometry" />
        </mxCell>
        <mxCell id="-OxEj-Mk2Tuy_CTHqCRG-62" value="......" style="rounded=0;whiteSpace=wrap;html=1;fillColor=#dae8fc;strokeColor=#6c8ebf;" vertex="1" parent="1">
          <mxGeometry x="506.5" y="410" width="50" height="30" as="geometry" />
        </mxCell>
        <mxCell id="-OxEj-Mk2Tuy_CTHqCRG-63" value="......" style="rounded=0;whiteSpace=wrap;html=1;fillColor=#dae8fc;strokeColor=#6c8ebf;" vertex="1" parent="1">
          <mxGeometry x="456.5" y="410" width="50" height="30" as="geometry" />
        </mxCell>
        <mxCell id="-OxEj-Mk2Tuy_CTHqCRG-64" value="6" style="rounded=0;whiteSpace=wrap;html=1;fillColor=#fff2cc;strokeColor=#d6b656;" vertex="1" parent="1">
          <mxGeometry x="356.5" y="440" width="50" height="30" as="geometry" />
        </mxCell>
        <mxCell id="-OxEj-Mk2Tuy_CTHqCRG-65" value="......" style="rounded=0;whiteSpace=wrap;html=1;fillColor=#dae8fc;strokeColor=#6c8ebf;" vertex="1" parent="1">
          <mxGeometry x="406.5" y="440" width="50" height="30" as="geometry" />
        </mxCell>
        <mxCell id="-OxEj-Mk2Tuy_CTHqCRG-66" value="......" style="rounded=0;whiteSpace=wrap;html=1;fillColor=#dae8fc;strokeColor=#6c8ebf;" vertex="1" parent="1">
          <mxGeometry x="506.5" y="440" width="50" height="30" as="geometry" />
        </mxCell>
        <mxCell id="-OxEj-Mk2Tuy_CTHqCRG-67" value="......" style="rounded=0;whiteSpace=wrap;html=1;fillColor=#dae8fc;strokeColor=#6c8ebf;" vertex="1" parent="1">
          <mxGeometry x="456.5" y="440" width="50" height="30" as="geometry" />
        </mxCell>
        <mxCell id="-OxEj-Mk2Tuy_CTHqCRG-116" value="7" style="rounded=0;whiteSpace=wrap;html=1;fillColor=#fff2cc;strokeColor=#d6b656;" vertex="1" parent="1">
          <mxGeometry x="606.5" y="380" width="50" height="30" as="geometry" />
        </mxCell>
        <mxCell id="-OxEj-Mk2Tuy_CTHqCRG-117" value="......" style="rounded=0;whiteSpace=wrap;html=1;fillColor=#dae8fc;strokeColor=#6c8ebf;" vertex="1" parent="1">
          <mxGeometry x="656.5" y="380" width="50" height="30" as="geometry" />
        </mxCell>
        <mxCell id="-OxEj-Mk2Tuy_CTHqCRG-118" value="......" style="rounded=0;whiteSpace=wrap;html=1;fillColor=#dae8fc;strokeColor=#6c8ebf;" vertex="1" parent="1">
          <mxGeometry x="756.5" y="380" width="50" height="30" as="geometry" />
        </mxCell>
        <mxCell id="-OxEj-Mk2Tuy_CTHqCRG-119" value="......" style="rounded=0;whiteSpace=wrap;html=1;fillColor=#dae8fc;strokeColor=#6c8ebf;" vertex="1" parent="1">
          <mxGeometry x="706.5" y="380" width="50" height="30" as="geometry" />
        </mxCell>
        <mxCell id="-OxEj-Mk2Tuy_CTHqCRG-120" value="8" style="rounded=0;whiteSpace=wrap;html=1;fillColor=#fff2cc;strokeColor=#d6b656;" vertex="1" parent="1">
          <mxGeometry x="606.5" y="410" width="50" height="30" as="geometry" />
        </mxCell>
        <mxCell id="-OxEj-Mk2Tuy_CTHqCRG-121" value="......" style="rounded=0;whiteSpace=wrap;html=1;fillColor=#dae8fc;strokeColor=#6c8ebf;" vertex="1" parent="1">
          <mxGeometry x="656.5" y="410" width="50" height="30" as="geometry" />
        </mxCell>
        <mxCell id="-OxEj-Mk2Tuy_CTHqCRG-122" value="......" style="rounded=0;whiteSpace=wrap;html=1;fillColor=#dae8fc;strokeColor=#6c8ebf;" vertex="1" parent="1">
          <mxGeometry x="756.5" y="410" width="50" height="30" as="geometry" />
        </mxCell>
        <mxCell id="-OxEj-Mk2Tuy_CTHqCRG-123" value="......" style="rounded=0;whiteSpace=wrap;html=1;fillColor=#dae8fc;strokeColor=#6c8ebf;" vertex="1" parent="1">
          <mxGeometry x="706.5" y="410" width="50" height="30" as="geometry" />
        </mxCell>
        <mxCell id="-OxEj-Mk2Tuy_CTHqCRG-124" value="9" style="rounded=0;whiteSpace=wrap;html=1;fillColor=#fff2cc;strokeColor=#d6b656;" vertex="1" parent="1">
          <mxGeometry x="606.5" y="440" width="50" height="30" as="geometry" />
        </mxCell>
        <mxCell id="-OxEj-Mk2Tuy_CTHqCRG-125" value="......" style="rounded=0;whiteSpace=wrap;html=1;fillColor=#dae8fc;strokeColor=#6c8ebf;" vertex="1" parent="1">
          <mxGeometry x="656.5" y="440" width="50" height="30" as="geometry" />
        </mxCell>
        <mxCell id="-OxEj-Mk2Tuy_CTHqCRG-126" value="......" style="rounded=0;whiteSpace=wrap;html=1;fillColor=#dae8fc;strokeColor=#6c8ebf;" vertex="1" parent="1">
          <mxGeometry x="756.5" y="440" width="50" height="30" as="geometry" />
        </mxCell>
        <mxCell id="-OxEj-Mk2Tuy_CTHqCRG-127" value="......" style="rounded=0;whiteSpace=wrap;html=1;fillColor=#dae8fc;strokeColor=#6c8ebf;" vertex="1" parent="1">
          <mxGeometry x="706.5" y="440" width="50" height="30" as="geometry" />
        </mxCell>
        <mxCell id="-OxEj-Mk2Tuy_CTHqCRG-135" value="10" style="rounded=0;whiteSpace=wrap;html=1;fillColor=#fff2cc;strokeColor=#d6b656;" vertex="1" parent="1">
          <mxGeometry x="856.5" y="380" width="50" height="30" as="geometry" />
        </mxCell>
        <mxCell id="-OxEj-Mk2Tuy_CTHqCRG-136" value="......" style="rounded=0;whiteSpace=wrap;html=1;fillColor=#dae8fc;strokeColor=#6c8ebf;" vertex="1" parent="1">
          <mxGeometry x="906.5" y="380" width="50" height="30" as="geometry" />
        </mxCell>
        <mxCell id="-OxEj-Mk2Tuy_CTHqCRG-137" value="......" style="rounded=0;whiteSpace=wrap;html=1;fillColor=#dae8fc;strokeColor=#6c8ebf;" vertex="1" parent="1">
          <mxGeometry x="1006.5" y="380" width="50" height="30" as="geometry" />
        </mxCell>
        <mxCell id="-OxEj-Mk2Tuy_CTHqCRG-138" value="......" style="rounded=0;whiteSpace=wrap;html=1;fillColor=#dae8fc;strokeColor=#6c8ebf;" vertex="1" parent="1">
          <mxGeometry x="956.5" y="380" width="50" height="30" as="geometry" />
        </mxCell>
        <mxCell id="-OxEj-Mk2Tuy_CTHqCRG-139" value="11" style="rounded=0;whiteSpace=wrap;html=1;fillColor=#fff2cc;strokeColor=#d6b656;" vertex="1" parent="1">
          <mxGeometry x="856.5" y="410" width="50" height="30" as="geometry" />
        </mxCell>
        <mxCell id="-OxEj-Mk2Tuy_CTHqCRG-140" value="......" style="rounded=0;whiteSpace=wrap;html=1;fillColor=#dae8fc;strokeColor=#6c8ebf;" vertex="1" parent="1">
          <mxGeometry x="906.5" y="410" width="50" height="30" as="geometry" />
        </mxCell>
        <mxCell id="-OxEj-Mk2Tuy_CTHqCRG-141" value="......" style="rounded=0;whiteSpace=wrap;html=1;fillColor=#dae8fc;strokeColor=#6c8ebf;" vertex="1" parent="1">
          <mxGeometry x="1006.5" y="410" width="50" height="30" as="geometry" />
        </mxCell>
        <mxCell id="-OxEj-Mk2Tuy_CTHqCRG-142" value="......" style="rounded=0;whiteSpace=wrap;html=1;fillColor=#dae8fc;strokeColor=#6c8ebf;" vertex="1" parent="1">
          <mxGeometry x="956.5" y="410" width="50" height="30" as="geometry" />
        </mxCell>
        <mxCell id="-OxEj-Mk2Tuy_CTHqCRG-143" value="12" style="rounded=0;whiteSpace=wrap;html=1;fillColor=#fff2cc;strokeColor=#d6b656;" vertex="1" parent="1">
          <mxGeometry x="856.5" y="440" width="50" height="30" as="geometry" />
        </mxCell>
        <mxCell id="-OxEj-Mk2Tuy_CTHqCRG-144" value="......" style="rounded=0;whiteSpace=wrap;html=1;fillColor=#dae8fc;strokeColor=#6c8ebf;" vertex="1" parent="1">
          <mxGeometry x="906.5" y="440" width="50" height="30" as="geometry" />
        </mxCell>
        <mxCell id="-OxEj-Mk2Tuy_CTHqCRG-145" value="......" style="rounded=0;whiteSpace=wrap;html=1;fillColor=#dae8fc;strokeColor=#6c8ebf;" vertex="1" parent="1">
          <mxGeometry x="1006.5" y="440" width="50" height="30" as="geometry" />
        </mxCell>
        <mxCell id="-OxEj-Mk2Tuy_CTHqCRG-146" value="......" style="rounded=0;whiteSpace=wrap;html=1;fillColor=#dae8fc;strokeColor=#6c8ebf;" vertex="1" parent="1">
          <mxGeometry x="956.5" y="440" width="50" height="30" as="geometry" />
        </mxCell>
        <mxCell id="-OxEj-Mk2Tuy_CTHqCRG-167" style="edgeStyle=none;rounded=0;orthogonalLoop=1;jettySize=auto;html=1;exitX=0;exitY=0.5;exitDx=0;exitDy=0;entryX=1;entryY=0.602;entryDx=0;entryDy=0;strokeColor=#f61c04;strokeWidth=1;entryPerimeter=0;" edge="1" parent="1">
          <mxGeometry relative="1" as="geometry">
            <mxPoint x="597" y="430" as="sourcePoint" />
            <mxPoint x="565" y="430.5060000000001" as="targetPoint" />
          </mxGeometry>
        </mxCell>
        <mxCell id="-OxEj-Mk2Tuy_CTHqCRG-168" style="edgeStyle=none;rounded=0;orthogonalLoop=1;jettySize=auto;html=1;strokeColor=#f61c04;strokeWidth=1;entryX=0;entryY=0.354;entryDx=0;entryDy=0;entryPerimeter=0;" edge="1" parent="1">
          <mxGeometry relative="1" as="geometry">
            <mxPoint x="566" y="417" as="sourcePoint" />
            <mxPoint x="598" y="417.462" as="targetPoint" />
          </mxGeometry>
        </mxCell>
      </root>
    </mxGraphModel>
  </diagram>
</mxfile>
